<?xml version="1.0" standalone="no"?>
<!DOCTYPE svg PUBLIC "-//W3C//DTD SVG 20010904//EN"
 "http://www.w3.org/TR/2001/REC-SVG-20010904/DTD/svg10.dtd">
<svg version="1.0" xmlns="http://www.w3.org/2000/svg"
 width="200.000000pt" height="200.000000pt" viewBox="0 0 200.000000 200.000000"
 preserveAspectRatio="xMidYMid meet">
<metadata>
Created by potrace 1.14, written by Peter Selinger 2001-2017
</metadata>
<g transform="translate(0.000000,200.000000) scale(0.100000,-0.100000)"
fill="#000000" stroke="none">
<path d="M642 1893 c10 -37 6 -207 -7 -268 -17 -83 -83 -246 -124 -305 -26
-35 -82 -146 -86 -167 -2 -10 -4 -18 -5 -18 -1 0 -4 -9 -6 -20 -35 -146 -19
-271 50 -378 42 -64 78 -98 136 -128 58 -29 72 -33 150 -33 53 0 77 5 130 30
190 91 265 303 201 568 -24 100 -79 221 -116 256 l-24 23 0 -134 c-1 -74 -3
-143 -5 -154 -2 -11 -5 -28 -5 -37 -2 -30 -44 -69 -68 -62 -40 11 -48 64 -27
194 11 68 13 286 3 340 -27 146 -94 265 -177 313 l-30 17 10 -37z"/>
</g>
</svg>
